<?xml version="1.0" encoding="utf-8"?>
<!-- Generator: Adobe Illustrator 19.2.1, SVG Export Plug-In . SVG Version: 6.00 Build 0)  -->
<svg version="1.1" id="logo-tesco-technology" xmlns="http://www.w3.org/2000/svg" xmlns:xlink="http://www.w3.org/1999/xlink"
	 x="0px" y="0px" viewBox="0 0 400 400" enable-background="new 0 0 400 400" width="400px" height="400px" xml:space="preserve">
<g id="text-technology">
	<path fill="#7F7F7F" d="M51.5,223.2c-0.7-0.6-2-0.8-3.7-0.8H35.8v46.3H30c-0.7,0-1-0.3-1-0.9v-45.4H14.5c-0.7,0-1-0.3-1-0.9v-4.9
		h36.1c0.6,0,1,0.3,1.1,0.9L51.5,223.2z"/>
	<path fill="#7F7F7F" d="M87.8,250.8c0,1.2-0.7,1.7-2.1,1.7H63.4c0.8,7.7,4.9,11.5,12.2,11.5c3.4,0,6.5-0.5,9.2-1.6l1.7,5
		c-2.9,1.4-6.8,2.1-11.7,2.1c-5.8,0-10.3-1.7-13.5-5.2c-3.1-3.3-4.6-7.8-4.6-13.4c0-5.8,1.4-10.4,4.2-13.7s6.9-5,12.3-5
		c5,0,8.7,1.8,11.2,5.4C86.7,241,87.8,245.3,87.8,250.8z M81.2,247.5c-0.4-6.9-3.2-10.3-8.7-10.3c-5.5,0-8.6,3.4-9.1,10.3H81.2z"/>
	<path fill="#7F7F7F" d="M123,267.4c-3.2,1.3-6.8,2-10.8,2c-4.9,0-8.9-1.4-11.9-4.1c-3.5-3.2-5.3-8.1-5.3-14.4
		c0-5.3,1.5-9.6,4.4-12.9c3.2-3.5,7.5-5.3,13.1-5.3c2.7,0,5.1,0.4,7.1,1.1c0.7,0.3,1.1,0.8,1.2,1.5l0.6,5.4
		c-2.6-1.7-5.5-2.5-8.8-2.5c-3.1,0-5.7,1.1-7.7,3.3c-2.1,2.3-3.1,5.6-3.1,9.9c0,8.4,3.8,12.6,11.4,12.6c2.7,0,5.4-0.6,8.3-1.8
		L123,267.4z"/>
	<path fill="#7F7F7F" d="M161.1,268.7h-5.4c-0.7,0-1-0.3-1-0.9v-21c0-5.9-2.6-8.9-7.7-8.9c-4,0-7.3,1.9-10,5.7v25.1h-5.4
		c-0.7,0-1-0.3-1-0.9v-47.2c0-1.9-0.4-3.3-1.1-4l4.1-0.4c1.1-0.1,1.8-0.2,2.2-0.2c0.8,0,1.1,0.3,1.1,1v20.1c3-3.2,6.7-4.8,11.1-4.8
		c8.7,0,13,4.3,13,13V268.7z"/>
	<path fill="#7F7F7F" d="M202.5,268.7h-5.4c-0.7,0-1-0.3-1-0.9v-21c0-5.9-2.6-8.9-7.7-8.9c-4,0-7.3,1.9-10,5.7v25.1H173
		c-0.7,0-1-0.3-1-0.9v-25.2c0-4.4-0.4-7.4-1.2-9.3h5.1c0.6,0,1,0.2,1.2,0.7c0.3,0.6,0.5,1.9,0.7,3.8c3.1-3.6,7-5.4,11.7-5.4
		c8.7,0,13,4.3,13,13V268.7z"/>
	<path fill="#7F7F7F" d="M245.3,251c0,5.6-1.6,10.1-4.7,13.5c-3.1,3.4-7.2,5.1-12.1,5.1s-9-1.7-12.1-5.1c-3.1-3.4-4.7-7.9-4.7-13.5
		c0-6,1.6-10.6,4.7-13.9c2.9-3.1,7-4.7,12.1-4.7s9.1,1.6,12.1,4.7C243.8,240.3,245.3,245,245.3,251z M238.6,251c0-4-0.9-7.2-2.6-9.7
		c-1.7-2.5-4.2-3.7-7.4-3.7s-5.7,1.2-7.4,3.7c-1.7,2.5-2.6,5.7-2.6,9.7c0,4,0.8,7.1,2.5,9.5c1.8,2.6,4.3,3.9,7.5,3.9
		c3.3,0,5.8-1.3,7.6-3.9C237.8,258.1,238.6,254.9,238.6,251z"/>
	<path fill="#7F7F7F" d="M261.1,268.7h-5.4c-0.7,0-1-0.3-1-0.9v-47.2c0-1.9-0.4-3.3-1.1-4l4.1-0.4c1.1-0.1,1.8-0.2,2.2-0.2
		c0.8,0,1.1,0.3,1.1,1V268.7z"/>
	<path fill="#7F7F7F" d="M303.9,251c0,5.6-1.6,10.1-4.7,13.5c-3.1,3.4-7.2,5.1-12.1,5.1s-9-1.7-12.1-5.1c-3.1-3.4-4.7-7.9-4.7-13.5
		c0-6,1.6-10.6,4.7-13.9c2.9-3.1,7-4.7,12.1-4.7s9.1,1.6,12.1,4.7C302.4,240.3,303.9,245,303.9,251z M297.2,251c0-4-0.9-7.2-2.6-9.7
		c-1.7-2.5-4.2-3.7-7.4-3.7s-5.7,1.2-7.4,3.7c-1.7,2.5-2.6,5.7-2.6,9.7c0,4,0.8,7.1,2.5,9.5c1.8,2.6,4.3,3.9,7.5,3.9
		c3.3,0,5.8-1.3,7.6-3.9C296.4,258.1,297.2,254.9,297.2,251z"/>
	<path fill="#7F7F7F" d="M344.1,235.4c-0.7,0.8-1,2.1-1,4v27.8c0,10.6-5.5,15.9-16.6,15.9c-4.6,0-8.6-0.6-12.2-1.9l1.4-5.1
		c3.3,1.1,6.5,1.7,9.6,1.7c7.7,0,11.5-2.9,11.5-8.8v-3.1c-2.9,2.1-6.5,3.2-10.6,3.2c-4.6,0-8.2-1.5-10.8-4.5
		c-2.6-3-3.9-7.3-3.9-12.8c0-6.3,1.7-11.2,5-14.6c3.2-3.1,7.5-4.7,13-4.7C335.5,232.3,340.3,233.4,344.1,235.4z M336.8,260.2V239
		c-2.2-1-4.7-1.4-7.5-1.4c-3.3,0-5.9,1-7.8,3.1c-2.1,2.3-3.1,5.6-3.1,10.1c0,8.5,3.1,12.8,9.4,12.8
		C331.1,263.6,334.1,262.5,336.8,260.2z"/>
	<path fill="#7F7F7F" d="M384.4,233.3c-0.7,0.4-1.4,1.7-2.2,3.9l-13.6,35.2c-1.5,3.7-3.1,6.4-4.9,8.1c-2,1.8-4.8,2.7-8.2,2.7
		c-2.5,0-4.7-0.5-6.8-1.6l1.7-5c1.5,0.9,2.9,1.4,4.4,1.4c1.9,0,3.5-0.5,4.7-1.5c1.2-1,2.4-2.9,3.5-5.7l1.5-3.9l-13.5-29.6
		c-0.5-1.1-0.9-1.9-1.1-2.3c-0.4-0.8-0.8-1.3-1.1-1.5h6.3c0.8,0,1.3,0.5,1.7,1.4l10.6,24.5l9.4-24.5c0.4-0.9,1-1.4,1.8-1.4H384.4z"
		/>
</g>
<g id="logo-tesco">
	<g>
		<path fill="#1056A0" d="M41.7,181.4h45.8c0.4,0,0.4,0.4,0,0.4C82,184,74.6,191,74.6,191c-5.2,4.4-9.2,7.4-17.7,7.4H13.2
			c-0.4,0-0.4-0.4,0-0.4c4.8-2.6,11.8-9.6,11.8-9.6C28,185.5,33.9,181.4,41.7,181.4L41.7,181.4L41.7,181.4z"/>
		<path fill="#1056A0" d="M341.5,181.4h45.8c0.4,0,0.4,0.4,0,0.4c-5.2,2.2-12.6,9.2-12.6,9.2c-5.2,4.4-9.2,7.4-17.7,7.4h-44
			c-0.4,0-0.4-0.4,0-0.4c4.8-2.6,11.8-9.6,11.8-9.6C328.2,185.5,334.1,181.4,341.5,181.4L341.5,181.4L341.5,181.4z"/>
		<path fill="#1056A0" d="M116.7,181.4h45.8c0.4,0,0.4,0.4,0,0.4C157.4,184,150,191,150,191c-5.2,4.4-9.2,7.4-17.7,7.4H88.6
			c-0.4,0-0.4-0.4,0-0.4c4.8-2.6,11.8-9.6,11.8-9.6C103.1,185.5,109,181.4,116.7,181.4L116.7,181.4L116.7,181.4z"/>
		<path fill="#1056A0" d="M191.4,181.4h45.8c0.4,0,0.4,0.4,0,0.4c-5.2,2.2-12.6,9.2-12.6,9.2c-5.2,4.4-9.2,7.4-17.7,7.4h-43.6
			c-0.4,0-0.4-0.4,0-0.4c4.8-2.6,11.8-9.6,11.8-9.6C178.1,185.5,184,181.4,191.4,181.4L191.4,181.4L191.4,181.4z"/>
		<path fill="#1056A0" d="M266.5,181.4h45.8c0.4,0,0.4,0.4,0,0.4c-5.2,2.2-12.6,9.2-12.6,9.2c-5.2,4.4-9.2,7.4-17.7,7.4h-43.6
			c-0.4,0-0.4-0.4,0-0.4c4.8-2.6,11.8-9.6,11.8-9.6C253.2,185.5,259.1,181.4,266.5,181.4L266.5,181.4L266.5,181.4z"/>
	</g>
	<g>
		<path fill="#E62B23" d="M279.1,98.6c-28.8,0-47.7,13.7-47.7,34.8c0,19.2,17.4,32.2,43.6,32.2c8.5,0,15.9-1.1,24.8-3.3v-16.3
			c-6.3,6.7-13.7,9.2-21.8,9.2c-15.5,0-25.9-9.6-25.9-23.7c0-13.7,11.1-23.7,26.3-23.7c8.5,0,15.2,3,20.3,8.1v-15.5
			C293.1,99,286.1,98.6,279.1,98.6L279.1,98.6L279.1,98.6z"/>
		<path fill="#E62B23" d="M62.7,109.7c10.7,0,23.3,1.8,28.8,6.3v-15.5H15.4V116c5.5-4.1,16.6-5.9,28.8-5.9v42.2
			c0,6.3-0.4,7.8-3.3,11.1h24.4c-2.6-3.3-3.3-5.2-3.3-11.1v-42.5H62.7L62.7,109.7z"/>
		<path fill="#E62B23" d="M141.5,125.2c-4.4,1.5-12.2,1.8-16.3,1.8H119v-16.6h8.5c7.8,0,21.1,1.5,25.9,5.9v-15.9H98.2
			c2.6,3.3,3,5.2,3,11.1v40.7c0,6.3-0.4,8.1-3,11.1H157v-15.2c-8.1,5.9-23.3,5.9-29.6,5.5H119v-17.4h6.3c4.4,0,11.8,0.4,16.3,1.8
			V125.2L141.5,125.2L141.5,125.2z"/>
		<path fill="#E62B23" d="M223.2,102.7c-8.5-2.6-20.3-4.4-28.8-4.4c-15.9,0-31.4,4.8-31.4,20.7c0,27.4,48.1,12.9,48.1,29.6
			c0,5.5-8.5,7.8-15.2,7.8c-12.2,0-21.1-1.8-31.8-8.1v13.7c8.1,2.6,18.9,4.1,31.1,4.1c16.6,0,32.2-4.4,32.2-20.3
			c0-28.8-48.1-15.9-48.1-29.9c0-5.5,7.8-7.8,14.4-7.8c11.5,0,23.7,3.3,30.3,9.6v-14.8H223.2L223.2,102.7z"/>
		<path fill="#E62B23" d="M322.7,132.3c0-13.3,8.5-24,21.4-24s21.4,10.7,21.4,24c0.4,12.9-8.1,23.7-21.1,23.7
			C331.2,155.9,322.7,145.2,322.7,132.3L322.7,132.3L322.7,132.3z M385.2,131.5c0-20-15.5-33.3-38.8-33.3
			c-25.1,0.4-42.5,14.4-42.5,34.8c0,19.6,15.9,32.9,39.2,32.9C367.8,165.9,385.2,151.8,385.2,131.5L385.2,131.5L385.2,131.5z"/>
	</g>
</g>
</svg>
